M48
INCH
T01C0.0200
T02C0.0400
T03C0.0300
%
T01
X-023250Y+031000
X-024500Y+030500
X-022500Y+030250
X-023250Y+030000
X-024500Y+032500
X-022750Y+029750
X-024750Y+028750
X-025000Y+027500
X-029000Y+026000
X-023250Y+028750
X-026750Y+028000
X-028000Y+024750
X-027000Y+022000
X-027500Y+021000
X-027750Y+022250
X-028750Y+022000
X-024250Y+024250
X-022000Y+025250
X-022000Y+028250
X-021000Y+028500
X-019250Y+023500
X-019000Y+025500
X-020750Y+027750
X-020500Y+026750
X-019750Y+027500
X-014750Y+024500
X-014000Y+025250
X-020000Y+028250
X-014500Y+027250
X-014500Y+021500
X-013500Y+021500
X-013500Y+026750
X-020000Y+029500
X-015250Y+028750
X-017000Y+028750
X-020750Y+029500
X-022250Y+022250
X-023250Y+022250
X-020000Y+030250
X-014250Y+033750
X-016750Y+034250
X-016250Y+034750
X-020250Y+031250
X-018250Y+035750
X-020750Y+030500
X-014500Y+029250
X-015500Y+023000
X-013000Y+021000
X-014000Y+026500
X-021500Y+031250
X-022000Y+030750
X-029500Y+038000
X-017250Y+029750
X-022500Y+027750
T02
X-022149Y+020275
X-023149Y+020275
X-024149Y+020275
X-025149Y+020275
X-026149Y+020275
X-027149Y+020275
X-028149Y+020275
X-029149Y+020275
X-014157Y+020275
X-015157Y+020275
X-016157Y+020275
X-017157Y+020275
X-018157Y+020275
X-019157Y+020275
X-020157Y+020275
X-021157Y+020275
X-029149Y+038779
X-028149Y+038779
X-027149Y+038779
X-026149Y+038779
X-025149Y+038779
X-024149Y+038779
X-023149Y+038779
X-022149Y+038779
X-021157Y+038779
X-020157Y+038779
X-019157Y+038779
X-018157Y+038779
X-017157Y+038779
X-016157Y+038779
X-015157Y+038779
X-014157Y+038779
X-030905Y+022031
X-030905Y+023031
X-030905Y+024031
X-030905Y+025031
X-030905Y+026031
X-030905Y+027031
X-030905Y+028031
X-030905Y+029031
X-030905Y+030047
X-030905Y+031047
X-030905Y+032047
X-030905Y+033047
X-030905Y+034047
X-030905Y+035047
X-030905Y+036047
X-030905Y+037047
X-012401Y+022031
X-012401Y+023031
X-012401Y+024031
X-012401Y+025031
X-012401Y+026031
X-012401Y+027031
X-012401Y+028031
X-012401Y+029031
X-012401Y+030047
X-012401Y+031047
X-012401Y+032047
X-012401Y+033047
X-012401Y+034047
X-012401Y+035047
X-012401Y+036047
X-012401Y+037047
X-027204Y+023149
X-026204Y+023149
X-025204Y+023149
X-024204Y+023149
X-023204Y+023149
X-022204Y+023149
X-026748Y+027047
X-025748Y+027047
T03
X-026968Y+034055
X-025000Y+034055
X-016141Y+028511
X-016141Y+030511
X-017125Y+032480
X-016125Y+032480
X-017125Y+026574
X-016125Y+026574
X-026511Y+032283
X-025511Y+032283
X-026755Y+036220
X-022755Y+036220
X-027913Y+036141
X-027913Y+032141
X-022181Y+033149
X-021181Y+033149
X-026771Y+028937
X-025771Y+028937
X-023834Y+025433
X-022834Y+025433
X-020803Y+025393
X-019803Y+025393
X-017992Y+029094
X-017992Y+030094
X-020196Y+023149
X-016196Y+023149
M30
